<svg width="83" height="96" viewBox="0 0 83 96" fill="none" xmlns="http://www.w3.org/2000/svg">
<g filter="url(#filter0_i_14_234)">
<path fill-rule="evenodd" clip-rule="evenodd" d="M79.1442 7.07247C79.1442 9.32163 77.3209 11.1449 75.0718 11.1449H7.07247C4.82331 11.1449 3 9.32163 3 7.07247V7.07247C3 4.82331 4.82331 3 7.07247 3H75.0718C77.3209 3 79.1442 4.82331 79.1442 7.07247V7.07247Z" fill="#D9D9D9" stroke="#D9CCF6" stroke-opacity="0.54" stroke-width="6"/>
<path fill-rule="evenodd" clip-rule="evenodd" d="M79.1442 88.9274C79.1442 91.1766 77.3209 92.9999 75.0718 92.9999H7.07247C4.82331 92.9999 3 91.1766 3 88.9274V88.9274C3 86.6783 4.82331 84.855 7.07247 84.855H75.0718C77.3209 84.855 79.1442 86.6783 79.1442 88.9274V88.9274Z" fill="#D9D9D9" stroke="#D9CCF6" stroke-opacity="0.54" stroke-width="6"/>
<path d="M49.6384 7.07251L18.2289 47.0482L49.6384 89.8794" stroke="#D9CCF6" stroke-opacity="0.54" stroke-width="8"/>
</g>
<defs>
<filter id="filter0_i_14_234" x="0" y="0" width="82.1443" height="96.9999" filterUnits="userSpaceOnUse" color-interpolation-filters="sRGB">
<feFlood flood-opacity="0" result="BackgroundImageFix"/>
<feBlend mode="normal" in="SourceGraphic" in2="BackgroundImageFix" result="shape"/>
<feColorMatrix in="SourceAlpha" type="matrix" values="0 0 0 0 0 0 0 0 0 0 0 0 0 0 0 0 0 0 127 0" result="hardAlpha"/>
<feOffset dy="1"/>
<feGaussianBlur stdDeviation="7"/>
<feComposite in2="hardAlpha" operator="arithmetic" k2="-1" k3="1"/>
<feColorMatrix type="matrix" values="0 0 0 0 1 0 0 0 0 1 0 0 0 0 1 0 0 0 0.55 0"/>
<feBlend mode="normal" in2="shape" result="effect1_innerShadow_14_234"/>
</filter>
</defs>
</svg>
