<svg width="73" height="85" viewBox="0 0 73 85" fill="none" xmlns="http://www.w3.org/2000/svg">
<g filter="url(#filter0_i_1_531)">
<path fill-rule="evenodd" clip-rule="evenodd" d="M70 6.55833C70 8.52354 68.4069 10.1167 66.4417 10.1167H6.55833C4.59312 10.1167 3 8.52354 3 6.55833V6.55833C3 4.59312 4.59312 3 6.55833 3H66.4417C68.4069 3 70 4.59312 70 6.55833V6.55833Z" fill="#D9D9D9" stroke="#D9CCF6" stroke-opacity="0.54" stroke-width="6"/>
<path fill-rule="evenodd" clip-rule="evenodd" d="M70 78.0793C70 80.0445 68.4069 81.6377 66.4417 81.6377H6.55833C4.59312 81.6377 3 80.0445 3 78.0793V78.0793C3 76.1141 4.59312 74.521 6.55833 74.521H66.4417C68.4069 74.521 70 76.1141 70 78.0793V78.0793Z" fill="#D9D9D9" stroke="#D9CCF6" stroke-opacity="0.54" stroke-width="6"/>
<path d="M44.0375 6.55835L16.4 41.4872L44.0375 78.911" stroke="#D9CCF6" stroke-opacity="0.54" stroke-width="8"/>
</g>
<defs>
<filter id="filter0_i_1_531" x="0" y="0" width="73" height="85.6377" filterUnits="userSpaceOnUse" color-interpolation-filters="sRGB">
<feFlood flood-opacity="0" result="BackgroundImageFix"/>
<feBlend mode="normal" in="SourceGraphic" in2="BackgroundImageFix" result="shape"/>
<feColorMatrix in="SourceAlpha" type="matrix" values="0 0 0 0 0 0 0 0 0 0 0 0 0 0 0 0 0 0 127 0" result="hardAlpha"/>
<feOffset dy="1"/>
<feGaussianBlur stdDeviation="7"/>
<feComposite in2="hardAlpha" operator="arithmetic" k2="-1" k3="1"/>
<feColorMatrix type="matrix" values="0 0 0 0 1 0 0 0 0 1 0 0 0 0 1 0 0 0 0.55 0"/>
<feBlend mode="normal" in2="shape" result="effect1_innerShadow_1_531"/>
</filter>
</defs>
</svg>
