<svg width="9" height="6" viewBox="0 0 9 6" fill="none" xmlns="http://www.w3.org/2000/svg">
<path d="M7.51387 3.15935L6.5667 2.86071L7.51387 3.15935C7.58704 2.92729 7.58469 2.67425 7.58353 2.54962C7.5834 2.53613 7.58329 2.52414 7.58329 2.51385C7.58329 2.51285 7.58335 2.51084 7.58342 2.5079C7.58449 2.46707 7.59029 2.24641 7.52544 2.04074C7.4028 1.65179 7.09813 1.34712 6.70918 1.22448L6.40847 2.1782L6.70917 1.22448C6.5035 1.15963 6.28285 1.16542 6.24202 1.1665C6.23908 1.16657 6.23707 1.16663 6.23607 1.16663H2.76385C2.76285 1.16663 2.76084 1.16657 2.7579 1.1665C2.71707 1.16542 2.49641 1.15963 2.29074 1.22448C1.90179 1.34712 1.59712 1.65179 1.47448 2.04074C1.40963 2.24641 1.41542 2.46707 1.4165 2.5079C1.41657 2.51084 1.41663 2.51285 1.41663 2.51385C1.41663 2.52414 1.41651 2.53613 1.41639 2.54962C1.41523 2.67425 1.41288 2.92729 1.48605 3.15935C1.63321 3.6261 1.99882 3.9917 2.46557 4.13887C2.69763 4.21204 2.95067 4.20969 3.07529 4.20853C3.08879 4.2084 3.10078 4.20829 3.11107 4.20829H5.88885C5.89914 4.20829 5.91113 4.2084 5.92462 4.20853C6.04925 4.20969 6.30229 4.21204 6.53435 4.13887C7.0011 3.9917 7.3667 3.6261 7.51387 3.15935Z" stroke="#C8C1C1" stroke-width="2"/>
</svg>
